<svg id="visual" viewBox="0 0 960 300" width="960" height="300" xmlns="http://www.w3.org/2000/svg" xmlns:xlink="http://www.w3.org/1999/xlink" version="1.1"><path d="M0 96L22.8 99.2C45.7 102.3 91.3 108.7 137 105.2C182.7 101.7 228.3 88.3 274 86C319.7 83.7 365.3 92.3 411.2 96C457 99.7 503 98.3 548.8 97.7C594.7 97 640.3 97 686 93.8C731.7 90.7 777.3 84.3 823 83.3C868.7 82.3 914.3 86.7 937.2 88.8L960 91L960 0L937.2 0C914.3 0 868.7 0 823 0C777.3 0 731.7 0 686 0C640.3 0 594.7 0 548.8 0C503 0 457 0 411.2 0C365.3 0 319.7 0 274 0C228.3 0 182.7 0 137 0C91.3 0 45.7 0 22.8 0L0 0Z" fill="#32cd32"></path><path d="M0 64L22.8 63.7C45.7 63.3 91.3 62.7 137 66.5C182.7 70.3 228.3 78.7 274 78.7C319.7 78.7 365.3 70.3 411.2 67C457 63.7 503 65.3 548.8 67.3C594.7 69.3 640.3 71.7 686 70.5C731.7 69.3 777.3 64.7 823 66.5C868.7 68.3 914.3 76.7 937.2 80.8L960 85L960 0L937.2 0C914.3 0 868.7 0 823 0C777.3 0 731.7 0 686 0C640.3 0 594.7 0 548.8 0C503 0 457 0 411.2 0C365.3 0 319.7 0 274 0C228.3 0 182.7 0 137 0C91.3 0 45.7 0 22.8 0L0 0Z" fill="#a6ae00"></path><path d="M0 60L22.8 60.3C45.7 60.7 91.3 61.3 137 61.3C182.7 61.3 228.3 60.7 274 63C319.7 65.3 365.3 70.7 411.2 69.7C457 68.7 503 61.3 548.8 56.7C594.7 52 640.3 50 686 51.3C731.7 52.7 777.3 57.3 823 58C868.7 58.7 914.3 55.3 937.2 53.7L960 52L960 0L937.2 0C914.3 0 868.7 0 823 0C777.3 0 731.7 0 686 0C640.3 0 594.7 0 548.8 0C503 0 457 0 411.2 0C365.3 0 319.7 0 274 0C228.3 0 182.7 0 137 0C91.3 0 45.7 0 22.8 0L0 0Z" fill="#d98800"></path><path d="M0 53L22.8 49.3C45.7 45.7 91.3 38.3 137 35.5C182.7 32.7 228.3 34.3 274 38.7C319.7 43 365.3 50 411.2 52.3C457 54.7 503 52.3 548.8 48.2C594.7 44 640.3 38 686 34.8C731.7 31.7 777.3 31.3 823 34.5C868.7 37.7 914.3 44.3 937.2 47.7L960 51L960 0L937.2 0C914.3 0 868.7 0 823 0C777.3 0 731.7 0 686 0C640.3 0 594.7 0 548.8 0C503 0 457 0 411.2 0C365.3 0 319.7 0 274 0C228.3 0 182.7 0 137 0C91.3 0 45.7 0 22.8 0L0 0Z" fill="#f65932"></path><path d="M0 29L22.8 29.2C45.7 29.3 91.3 29.7 137 29C182.7 28.3 228.3 26.7 274 24.8C319.7 23 365.3 21 411.2 21.2C457 21.3 503 23.7 548.8 26.2C594.7 28.7 640.3 31.3 686 30.8C731.7 30.3 777.3 26.7 823 23C868.7 19.3 914.3 15.7 937.2 13.8L960 12L960 0L937.2 0C914.3 0 868.7 0 823 0C777.3 0 731.7 0 686 0C640.3 0 594.7 0 548.8 0C503 0 457 0 411.2 0C365.3 0 319.7 0 274 0C228.3 0 182.7 0 137 0C91.3 0 45.7 0 22.8 0L0 0Z" fill="#ff0066"></path></svg>