<svg id="visual" viewBox="0 0 960 540" width="960" height="540" xmlns="http://www.w3.org/2000/svg" xmlns:xlink="http://www.w3.org/1999/xlink" version="1.1"><path d="M0 174L22.8 179.7C45.7 185.3 91.3 196.7 137 190.2C182.7 183.7 228.3 159.3 274 155.2C319.7 151 365.3 167 411.2 173.7C457 180.3 503 177.7 548.8 176.5C594.7 175.3 640.3 175.7 686 170.2C731.7 164.7 777.3 153.3 823 151.5C868.7 149.7 914.3 157.3 937.2 161.2L960 165L960 0L937.2 0C914.3 0 868.7 0 823 0C777.3 0 731.7 0 686 0C640.3 0 594.7 0 548.8 0C503 0 457 0 411.2 0C365.3 0 319.7 0 274 0C228.3 0 182.7 0 137 0C91.3 0 45.7 0 22.8 0L0 0Z" fill="#32cd32"></path><path d="M0 115L22.8 114.5C45.7 114 91.3 113 137 120.2C182.7 127.3 228.3 142.7 274 142.7C319.7 142.7 365.3 127.3 411.2 121.3C457 115.3 503 118.7 548.8 122.3C594.7 126 640.3 130 686 128C731.7 126 777.3 118 823 121.3C868.7 124.7 914.3 139.3 937.2 146.7L960 154L960 0L937.2 0C914.3 0 868.7 0 823 0C777.3 0 731.7 0 686 0C640.3 0 594.7 0 548.8 0C503 0 457 0 411.2 0C365.3 0 319.7 0 274 0C228.3 0 182.7 0 137 0C91.3 0 45.7 0 22.8 0L0 0Z" fill="#a6ae00"></path><path d="M0 109L22.8 109.5C45.7 110 91.3 111 137 111C182.7 111 228.3 110 274 114.3C319.7 118.7 365.3 128.3 411.2 126.5C457 124.7 503 111.3 548.8 102.8C594.7 94.3 640.3 90.7 686 93.2C731.7 95.7 777.3 104.3 823 105.7C868.7 107 914.3 101 937.2 98L960 95L960 0L937.2 0C914.3 0 868.7 0 823 0C777.3 0 731.7 0 686 0C640.3 0 594.7 0 548.8 0C503 0 457 0 411.2 0C365.3 0 319.7 0 274 0C228.3 0 182.7 0 137 0C91.3 0 45.7 0 22.8 0L0 0Z" fill="#d98800"></path><path d="M0 95L22.8 88.5C45.7 82 91.3 69 137 64.2C182.7 59.3 228.3 62.7 274 70.5C319.7 78.3 365.3 90.7 411.2 94.8C457 99 503 95 548.8 87.5C594.7 80 640.3 69 686 63.3C731.7 57.7 777.3 57.3 823 63.2C868.7 69 914.3 81 937.2 87L960 93L960 0L937.2 0C914.3 0 868.7 0 823 0C777.3 0 731.7 0 686 0C640.3 0 594.7 0 548.8 0C503 0 457 0 411.2 0C365.3 0 319.7 0 274 0C228.3 0 182.7 0 137 0C91.3 0 45.7 0 22.8 0L0 0Z" fill="#f65932"></path><path d="M0 52L22.8 52.5C45.7 53 91.3 54 137 53.2C182.7 52.3 228.3 49.7 274 46.3C319.7 43 365.3 39 411.2 39C457 39 503 43 548.8 47.5C594.7 52 640.3 57 686 56.2C731.7 55.3 777.3 48.7 823 42C868.7 35.3 914.3 28.7 937.2 25.3L960 22L960 0L937.2 0C914.3 0 868.7 0 823 0C777.3 0 731.7 0 686 0C640.3 0 594.7 0 548.8 0C503 0 457 0 411.2 0C365.3 0 319.7 0 274 0C228.3 0 182.7 0 137 0C91.3 0 45.7 0 22.8 0L0 0Z" fill="#ff0066"></path></svg>